{"accessors" : [{"bufferView" : 0, "byteOffset" : 0, "componentType" : 5123, "count" : 600, "type" : "SCALAR", "max" : [494], "min" : [0]}, {"bufferView" : 1, "byteOffset" : 0, "componentType" : 5126, "count" : 495, "type" : "VEC3", "max" : [230.39999389648438, 27, 197.13400268554688], "min" : [28.378881454467773, 0, 58.865997314453125], "name" : "POSITION"}], "asset" : {"generator" : "Aspose.3D 23.2", "version" : "2.0"}, "buffers" : [{"uri" : "data:application/octet-stream;base64,", "byteLength" : 8408}], "bufferViews" : [{"buffer" : 0, "byteOffset" : 0, "byteLength" : 1200, "target" : 34963}, {"buffer" : 0, "byteOffset" : 1204, "byteLength" : 7200, "byteStride" : 12, "target" : 34962}], "meshes" : [{"primitives" : [{"attributes" : {"POSITION" : 1}, "indices" : 0, "mode" : 4}], "name" : ""}], "nodes" : [{"mesh" : 0, "name" : ""}], "scene" : 0, "scenes" : [{"nodes" : [0]}]}