{"scene":0,"scenes":[{"nodes":[0]}],"asset":{"version":"2.0","generator":"https://github.com/mikedh/trimesh"},"accessors":[{"componentType":5125,"type":"SCALAR","bufferView":0,"count":960,"max":[151],"min":[0]},{"componentType":5126,"type":"VEC3","byteOffset":0,"bufferView":1,"count":152,"max":[230.39999389648438,27.0,220.81871032714844],"min":[25.100000381469727,2.1236164190937537e-15,34.6812858581543]}],"meshes":[{"name":"geometry_0","extras":{},"primitives":[{"attributes":{"POSITION":1},"indices":0,"mode":4}]}],"nodes":[{"name":"world","children":[1]},{"name":"geometry_0","mesh":0}],"buffers":[{"uri":"data:application/octet-stream;base64,","byteLength":5664}],"bufferViews":[{"buffer":0,"byteOffset":0,"byteLength":3840},{"buffer":0,"byteOffset":3840,"byteLength":1824}]}